<svg fill="none" height="100" viewBox="0 0 100 100" width="100" xmlns="http://www.w3.org/2000/svg" xmlns:xlink="http://www.w3.org/1999/xlink"><linearGradient id="a" gradientUnits="userSpaceOnUse" x1="93.75" x2="58.0739" y1="84.9666" y2="-1.36862"><stop offset="0" stop-color="#138c61"/><stop offset="1" stop-color="#4dba93" stop-opacity=".99"/></linearGradient><path d="m50 99.9607c27.6141 0 50-22.3769 50-49.9803s-22.3859-49.9804-50-49.9804c-27.6143 0-50 22.377-50 49.9804s22.3857 49.9803 50 49.9803z" fill="url(#a)"/><path clip-rule="evenodd" d="m72.6833 94.5358-39.3529-30.4546 5.5568-14.097-9.4028-12.8155 3.846-11.5339h39.7438l26.923 24.4741c-.0473 19.3866-11.1367 36.1794-27.3139 44.4269z" fill="#17875f" fill-rule="evenodd"/><path d="m76.898 32.6493h-11.4054v45.0284c-1.86 0-3.6921-.3554-5.4971-1.0663-1.8054-.6561-2.7079-1.4216-2.7079-2.2966v-9.76c-3.8291 2.4059-7.9862 3.6086-12.4718 3.6086-4.4857 0-8.1503-1.1482-10.9948-3.4449-2.7896-2.351-4.1846-5.3857-4.1846-9.1039 0-2.8432.9846-5.3859 2.9537-7.6278-2.7896-1.0388-5.005-2.57-6.6461-4.5933-1.641-2.0776-2.4616-4.5384-2.4616-7.3814 0-2.8434 1.1488-5.4407 3.4463-7.792 2.3521-2.351 5.5521-3.5267 9.6002-3.5267 2.9535 0 5.2235.656 6.8101 1.9684 1.6409 1.3123 2.4615 2.9253 2.4615 4.8392 0 3.8822-2.5165 6.6161-7.5486 8.2018-.8205-.656-1.4225-1.5857-1.8054-2.7885 2.2425-1.4765 3.3643-3.0347 3.3643-4.6752 0-.9297-.2737-1.6677-.8207-2.2145-.5471-.6016-1.4221-.9023-2.6255-.9023-1.2036 0-2.3795.6564-3.5282 1.9686-1.1488 1.3123-1.7231 3.0346-1.7231 5.1671 0 2.0779.5743 3.8275 1.7231 5.2495 1.2032 1.3666 2.7076 2.3237 4.5126 2.8705 2.4068-1.2028 5.1145-2.105 8.1234-2.7068 2.0784 1.9688 3.3911 4.0189 3.9384 6.1514-3.3918.6563-6.2634 1.6951-8.6153 3.117-2.2975 1.367-3.4465 2.9527-3.4465 4.757 0 1.7498.6018 3.1712 1.8054 4.265 1.258 1.0937 3.0357 1.6403 5.3332 1.6403 2.352 0 4.677-.656 6.9745-1.9684 2.2973-1.3125 4.2393-3.0348 5.8255-5.1673v-21.8169h-5.6616c-1.9691-2.2967-2.9536-4.7299-2.9536-7.2999h25.682c1.6955 2.1872 2.5436 4.6206 2.5436 7.2999z" fill="#fff"/></svg>